<svg version="1.1" xmlns="http://www.w3.org/2000/svg" viewBox="0 0 668.4262206652108 384.068359375" width="1336.8524413304217" height="768.13671875">
  <!-- svg-source:excalidraw -->
  
  <defs>
    <style class="style-fonts">
      @font-face {
        font-family: "Virgil";
        src: url("https://excalidraw.com/Virgil.woff2");
      }
      @font-face {
        font-family: "Cascadia";
        src: url("https://excalidraw.com/Cascadia.woff2");
      }
    </style>
  </defs>
  <g stroke-linecap="round" transform="translate(236.40473629021085 10) rotate(0 70.474609375 63.986328125)"><path d="M7.86 8.16 C7.86 8.16, 7.86 8.16, 7.86 8.16 M7.86 8.16 C7.86 8.16, 7.86 8.16, 7.86 8.16 M3.66 19.08 C10.21 12.43, 13.14 6.81, 18.1 2.48 M3.66 19.08 C7.17 14.48, 11.5 10.23, 18.1 2.48 M2.74 26.24 C8.24 20.62, 15.07 9.55, 24.39 1.33 M2.74 26.24 C8.67 19.09, 14.84 12.81, 24.39 1.33 M2.48 32.63 C8.21 25.74, 16.39 19.49, 30.69 0.18 M2.48 32.63 C9.06 23.73, 15.81 16.89, 30.69 0.18 M2.88 38.28 C16.35 23.54, 25.72 9.46, 34.37 2.05 M2.88 38.28 C10.14 28.64, 18.34 20.27, 34.37 2.05 M2.62 44.67 C11.16 33.64, 21.25 21.83, 39.36 2.41 M2.62 44.67 C16.01 29.27, 29.73 12.12, 39.36 2.41 M2.35 51.07 C19.33 30.25, 34.44 12.23, 45 2.02 M2.35 51.07 C20.34 31.69, 35.89 11.34, 45 2.02 M2.75 56.72 C20.76 39.32, 33.9 20.52, 49.99 2.38 M2.75 56.72 C13.92 45.44, 22.28 33.4, 49.99 2.38 M2.49 63.11 C18.41 45.01, 29.66 31.7, 55.63 1.98 M2.49 63.11 C20.5 42.98, 37.33 24.45, 55.63 1.98 M2.88 68.76 C20.02 49.5, 38.98 25.62, 60.62 2.34 M2.88 68.76 C18.64 50.39, 34.96 32.27, 60.62 2.34 M2.62 75.15 C15.25 57.02, 30.21 42.53, 66.26 1.95 M2.62 75.15 C17.85 57.28, 33.97 39.36, 66.26 1.95 M2.36 81.55 C20.09 60.18, 40.3 35.82, 71.25 2.31 M2.36 81.55 C17.1 63.72, 34.17 44.96, 71.25 2.31 M2.75 87.2 C23.68 61.84, 45.89 39.76, 76.23 2.67 M2.75 87.2 C26.73 59.55, 52.36 30.94, 76.23 2.67 M2.49 93.59 C20.11 75.05, 35.75 52.89, 81.88 2.27 M2.49 93.59 C29.52 62.86, 57.41 29.07, 81.88 2.27 M2.89 99.24 C26.25 70.73, 49.73 45.64, 86.86 2.63 M2.89 99.24 C29.69 68.39, 57.32 35.9, 86.86 2.63 M2.63 105.63 C22.62 82.46, 44.54 58.64, 92.51 2.24 M2.63 105.63 C28.13 76.83, 53.53 49.04, 92.51 2.24 M4.33 109.77 C29.23 79.46, 56.44 46.89, 97.49 2.6 M4.33 109.77 C38.03 70.52, 70.39 31.43, 97.49 2.6 M4.73 115.41 C38.05 77.51, 69.97 43.23, 103.14 2.2 M4.73 115.41 C25.43 90.4, 47.58 64.92, 103.14 2.2 M7.09 118.79 C47.38 73.59, 86.77 25.58, 108.12 2.56 M7.09 118.79 C40.49 80.68, 72.94 41.07, 108.12 2.56 M10.11 121.41 C40.32 82.47, 74.92 46.83, 113.77 2.17 M10.11 121.41 C48.49 77.2, 84.41 35.58, 113.77 2.17 M13.13 124.04 C48.33 84.77, 83.74 42.3, 118.75 2.53 M13.13 124.04 C44.84 85.9, 76.64 49.01, 118.75 2.53 M16.8 125.91 C41.14 99.15, 61.36 72.71, 123.74 2.89 M16.8 125.91 C44.78 92.58, 73.23 61.23, 123.74 2.89 M20.48 127.78 C43.95 98.65, 73.12 66.82, 127.42 4.76 M20.48 127.78 C56.85 86.15, 94.79 42.85, 127.42 4.76 M25.46 128.14 C54.55 94.36, 86.36 56.61, 131.09 6.63 M25.46 128.14 C55.71 94.57, 85.33 60.93, 131.09 6.63 M30.45 128.5 C60.39 92.2, 87.44 58.92, 134.11 9.25 M30.45 128.5 C60.94 95.63, 88.73 62.73, 134.11 9.25 M36.09 128.1 C56.9 100.67, 81.17 77.23, 136.47 12.63 M36.09 128.1 C67.08 93.96, 97.3 60.03, 136.47 12.63 M41.08 128.46 C67.97 101.56, 92.14 70.85, 138.83 16.01 M41.08 128.46 C70.12 95.73, 97.17 63.03, 138.83 16.01 M46.72 128.07 C76.59 94.21, 106.52 57.55, 141.2 19.39 M46.72 128.07 C67.13 104.56, 89.22 80.03, 141.2 19.39 M51.71 128.43 C84.84 90.79, 118.85 49.97, 141.59 25.03 M51.71 128.43 C82.53 89.59, 116.52 53.21, 141.59 25.03 M56.7 128.79 C82.46 96.2, 112.23 65.88, 142.64 29.92 M56.7 128.79 C81.5 99.31, 108.97 67.94, 142.64 29.92 M62.34 128.39 C84.26 99.26, 112.71 72.68, 143.69 34.81 M62.34 128.39 C82.34 105.88, 103.24 82.85, 143.69 34.81 M67.33 128.75 C93.16 96.54, 120.38 66.45, 144.09 40.45 M67.33 128.75 C97.13 93.45, 127.12 59.83, 144.09 40.45 M72.97 128.36 C91.59 103.33, 111.77 82.92, 143.83 46.85 M72.97 128.36 C91.62 108.31, 109.5 87.33, 143.83 46.85 M77.96 128.72 C93.29 112.45, 107.43 95.04, 143.56 53.25 M77.96 128.72 C96.27 106.94, 114.71 84.84, 143.56 53.25 M83.6 128.32 C96.07 114.1, 109.9 96.33, 143.96 58.89 M83.6 128.32 C102.9 106.48, 120.15 85.39, 143.96 58.89 M88.59 128.68 C106.15 106.8, 125.51 85.43, 143.7 65.29 M88.59 128.68 C108.63 105.42, 129.53 80.29, 143.7 65.29 M94.23 128.29 C105.65 112.56, 118.39 101.5, 143.44 71.69 M94.23 128.29 C108.16 112.95, 119.54 98.31, 143.44 71.69 M99.22 128.65 C113.69 111.52, 128.61 97.13, 143.83 77.33 M99.22 128.65 C108.54 116.84, 119.74 104.2, 143.83 77.33 M104.21 129.01 C116.17 115.04, 125.2 103.25, 143.57 83.73 M104.21 129.01 C120.03 112.56, 133.44 95.83, 143.57 83.73 M109.85 128.62 C118.06 120.52, 124.99 109.07, 143.31 90.13 M109.85 128.62 C122.56 113.45, 135.37 99.52, 143.31 90.13 M116.15 127.47 C124.75 116.3, 133.25 106.91, 143.7 95.77 M116.15 127.47 C123.14 118.92, 131.67 110.85, 143.7 95.77 M121.79 127.07 C126.98 121.2, 134.59 111.22, 141.47 104.43 M121.79 127.07 C129.63 118.91, 135.71 110.78, 141.47 104.43" stroke="#a5d8ff" stroke-width="0.5" fill="none"></path><path d="M31.99 0 M31.99 0 C56.68 1.35, 80.81 2.33, 108.96 0 M31.99 0 C59.75 0.96, 86.37 0.1, 108.96 0 M108.96 0 C132.1 -0.2, 141.54 9.24, 140.95 31.99 M108.96 0 C129.73 -0.03, 139.67 8.57, 140.95 31.99 M140.95 31.99 C142.07 50.68, 142.07 69.77, 140.95 95.98 M140.95 31.99 C141.14 46.36, 140.21 59.61, 140.95 95.98 M140.95 95.98 C141.06 119.02, 129.6 129.6, 108.96 127.97 M140.95 95.98 C140.74 119.43, 129.7 128.51, 108.96 127.97 M108.96 127.97 C93.49 128.98, 76.73 128.79, 31.99 127.97 M108.96 127.97 C81.08 129.11, 52.32 129.47, 31.99 127.97 M31.99 127.97 C9.4 127.56, -0.45 118.38, 0 95.98 M31.99 127.97 C9.89 128.57, 0.62 118.39, 0 95.98 M0 95.98 C-1.37 76.63, 2.21 56.36, 0 31.99 M0 95.98 C0.04 70.88, 0.14 47.24, 0 31.99 M0 31.99 C-1.21 12.2, 11.89 -0.32, 31.99 0 M0 31.99 C2.09 11.16, 9.11 0.78, 31.99 0" stroke="#1971c2" stroke-width="1" fill="none"></path></g><g transform="translate(280.97936702751554 61.486328125) rotate(0 25.899978637695312 12.5)"><text x="25.899978637695312" y="0" font-family="Virgil, Segoe UI Emoji" font-size="20px" fill="#1971c2" text-anchor="middle" style="white-space: pre;" direction="ltr" dominant-baseline="text-before-edge">Front</text></g><g stroke-linecap="round" transform="translate(515.7934081652108 11.052734375) rotate(0 70.474609375 63.986328125)"><path d="M7.86 8.16 C7.86 8.16, 7.86 8.16, 7.86 8.16 M7.86 8.16 C7.86 8.16, 7.86 8.16, 7.86 8.16 M3.66 19.08 C8.77 13.85, 15.15 5.28, 18.1 2.48 M3.66 19.08 C6.52 14.38, 9.67 11.42, 18.1 2.48 M2.74 26.24 C8.64 20.07, 11.64 15.51, 24.39 1.33 M2.74 26.24 C8.3 21.31, 12.19 15.1, 24.39 1.33 M2.48 32.63 C12.33 21.47, 26.12 6.51, 30.69 0.18 M2.48 32.63 C9.03 23.57, 16.64 14.8, 30.69 0.18 M2.88 38.28 C13.12 26.15, 24.72 14.88, 34.37 2.05 M2.88 38.28 C13.35 25.96, 25.68 13.47, 34.37 2.05 M2.62 44.67 C14.49 28.96, 30.79 13.89, 39.36 2.41 M2.62 44.67 C16.54 28.01, 31.8 11.9, 39.36 2.41 M2.35 51.07 C16.01 32.33, 31.92 17.91, 45 2.02 M2.35 51.07 C11.51 39.54, 21.43 27.66, 45 2.02 M2.75 56.72 C12.44 42.97, 25.85 26.61, 49.99 2.38 M2.75 56.72 C17.97 38.9, 34.93 20.15, 49.99 2.38 M2.49 63.11 C16.02 49.81, 29.24 30.9, 55.63 1.98 M2.49 63.11 C22.71 38.97, 42.69 16.66, 55.63 1.98 M2.88 68.76 C16.42 53.55, 25.45 42.2, 60.62 2.34 M2.88 68.76 C21.18 48.45, 38.68 28.26, 60.62 2.34 M2.62 75.15 C21.84 54.18, 40.29 32.82, 66.26 1.95 M2.62 75.15 C18.59 56.2, 34.98 38.21, 66.26 1.95 M2.36 81.55 C25.98 56.06, 45.54 30.31, 71.25 2.31 M2.36 81.55 C24.07 58.02, 44.19 34.21, 71.25 2.31 M2.75 87.2 C23.48 64.41, 38.97 44.54, 76.23 2.67 M2.75 87.2 C30.85 53.09, 60.14 21.52, 76.23 2.67 M2.49 93.59 C21.57 69.16, 41.04 46.32, 81.88 2.27 M2.49 93.59 C29.93 62.81, 57.63 31.88, 81.88 2.27 M2.89 99.24 C27.66 69.89, 51.2 42.53, 86.86 2.63 M2.89 99.24 C30.97 67.71, 57.88 34.9, 86.86 2.63 M2.63 105.63 C26.05 80.88, 47.69 54.81, 92.51 2.24 M2.63 105.63 C29.48 74.13, 56.83 45.17, 92.51 2.24 M4.33 109.77 C35.22 71.12, 69.48 36.25, 97.49 2.6 M4.33 109.77 C26.11 85.81, 46.77 59.33, 97.49 2.6 M4.73 115.41 C40.67 73.4, 78.65 33.44, 103.14 2.2 M4.73 115.41 C27.54 87.82, 51.56 62.18, 103.14 2.2 M7.09 118.79 C39.71 77.9, 74.47 41.68, 108.12 2.56 M7.09 118.79 C39.8 83.38, 71.62 46.59, 108.12 2.56 M10.11 121.41 C45.89 79.76, 86.56 33.99, 113.77 2.17 M10.11 121.41 C38.58 87.81, 67.38 56.15, 113.77 2.17 M13.13 124.04 C46.64 84.94, 82.53 41.62, 118.75 2.53 M13.13 124.04 C50.92 78.84, 90.9 34.03, 118.75 2.53 M16.8 125.91 C43.82 97.01, 69.28 66.38, 123.74 2.89 M16.8 125.91 C55.2 82.74, 91.37 42.06, 123.74 2.89 M20.48 127.78 C43.91 102.15, 66.75 74.95, 127.42 4.76 M20.48 127.78 C48.99 94.5, 76.76 61.94, 127.42 4.76 M25.46 128.14 C64.9 84.27, 101.34 40.16, 131.09 6.63 M25.46 128.14 C65.87 80.53, 108.3 32.43, 131.09 6.63 M30.45 128.5 C50.7 103.83, 71.42 79.09, 134.11 9.25 M30.45 128.5 C57.17 100.22, 82.85 69.46, 134.11 9.25 M36.09 128.1 C59.36 102.55, 79.09 77.7, 136.47 12.63 M36.09 128.1 C56.98 102.51, 78.36 78.12, 136.47 12.63 M41.08 128.46 C71.48 91.66, 105.48 55.11, 138.83 16.01 M41.08 128.46 C63.1 101.98, 84.45 76.48, 138.83 16.01 M46.72 128.07 C79.86 91.24, 111.18 58.51, 141.2 19.39 M46.72 128.07 C66.18 104.89, 86.91 83.11, 141.2 19.39 M51.71 128.43 C86.68 91.92, 119.17 50.82, 141.59 25.03 M51.71 128.43 C81.88 95.64, 109.91 63.94, 141.59 25.03 M56.7 128.79 C89.91 91.34, 118.95 58.91, 142.64 29.92 M56.7 128.79 C76.39 109.08, 92.71 87.7, 142.64 29.92 M62.34 128.39 C86.74 101.85, 109.8 76.67, 143.69 34.81 M62.34 128.39 C83.95 103.99, 106.51 79.29, 143.69 34.81 M67.33 128.75 C95.95 96.67, 122.71 65.89, 144.09 40.45 M67.33 128.75 C87.77 106.31, 108.68 81.65, 144.09 40.45 M72.97 128.36 C86.73 112.1, 101.14 92.69, 143.83 46.85 M72.97 128.36 C89.33 109.02, 106.11 90.33, 143.83 46.85 M77.96 128.72 C102.1 99.27, 124.23 73.57, 143.56 53.25 M77.96 128.72 C95.74 107.39, 114.26 87.28, 143.56 53.25 M83.6 128.32 C97.94 109.56, 115.31 93.88, 143.96 58.89 M83.6 128.32 C97.44 112.57, 111.73 97.36, 143.96 58.89 M88.59 128.68 C108.19 104.25, 128.08 82.16, 143.7 65.29 M88.59 128.68 C106.86 108.95, 124.45 87.54, 143.7 65.29 M94.23 128.29 C108.46 109.82, 126.33 91.38, 143.44 71.69 M94.23 128.29 C106.96 114.86, 118.37 100.26, 143.44 71.69 M99.22 128.65 C114.81 110.15, 129.32 95.96, 143.83 77.33 M99.22 128.65 C114.67 110.27, 132.12 91.1, 143.83 77.33 M104.21 129.01 C113.1 118.36, 123.56 104.87, 143.57 83.73 M104.21 129.01 C118.15 111.71, 133.46 95.52, 143.57 83.73 M109.85 128.62 C116.89 120.51, 125.63 111.87, 143.31 90.13 M109.85 128.62 C121.15 115.47, 132.23 103.26, 143.31 90.13 M116.15 127.47 C126.37 118.77, 134.98 107.02, 143.7 95.77 M116.15 127.47 C122.01 120.13, 129.21 112.89, 143.7 95.77 M121.79 127.07 C129.22 117.95, 136.67 110.28, 141.47 104.43 M121.79 127.07 C125.71 122.6, 131.57 116.51, 141.47 104.43" stroke="#b2f2bb" stroke-width="0.5" fill="none"></path><path d="M31.99 0 M31.99 0 C55.54 -0.57, 79.53 -0.93, 108.96 0 M31.99 0 C57.33 -0.37, 81.79 0.07, 108.96 0 M108.96 0 C129.4 -0.99, 142.35 10.91, 140.95 31.99 M108.96 0 C131.9 1.01, 138.86 9.66, 140.95 31.99 M140.95 31.99 C140.34 48.21, 141.36 62.72, 140.95 95.98 M140.95 31.99 C142.39 48.76, 141.7 65.03, 140.95 95.98 M140.95 95.98 C139.27 117.1, 130.23 129.06, 108.96 127.97 M140.95 95.98 C139.33 118.34, 131.71 127.98, 108.96 127.97 M108.96 127.97 C77.93 130.15, 49.27 127.96, 31.99 127.97 M108.96 127.97 C87.86 127.98, 66.72 127.93, 31.99 127.97 M31.99 127.97 C9.73 126.05, -1.67 118.57, 0 95.98 M31.99 127.97 C12.86 129.8, 1.93 118.99, 0 95.98 M0 95.98 C0.89 79.97, -1.54 63.96, 0 31.99 M0 95.98 C0.32 72.2, 0.44 50.54, 0 31.99 M0 31.99 C-1.93 9.83, 10.61 1.91, 31.99 0 M0 31.99 C0.45 11.79, 12.03 -0.77, 31.99 0" stroke="#2f9e44" stroke-width="1" fill="none"></path></g><g transform="translate(562.4380309679452 62.5390625) rotate(0 23.829986572265625 12.5)"><text x="23.829986572265625" y="0" font-family="Virgil, Segoe UI Emoji" font-size="20px" fill="#2f9e44" text-anchor="middle" style="white-space: pre;" direction="ltr" dominant-baseline="text-before-edge">Back</text></g><g stroke-linecap="round" transform="translate(517.4770019152108 246.095703125) rotate(0 70.474609375 63.986328125)"><path d="M7.86 8.16 C7.86 8.16, 7.86 8.16, 7.86 8.16 M7.86 8.16 C7.86 8.16, 7.86 8.16, 7.86 8.16 M3.66 19.08 C9.35 15.22, 13.59 10.43, 18.1 2.48 M3.66 19.08 C8.15 15.18, 11.34 10.58, 18.1 2.48 M2.74 26.24 C6.12 19.75, 14.13 12.2, 24.39 1.33 M2.74 26.24 C10.92 18.06, 16.41 9.93, 24.39 1.33 M2.48 32.63 C12.36 23.29, 21.59 13.04, 30.69 0.18 M2.48 32.63 C12.92 21.83, 23.11 8.63, 30.69 0.18 M2.88 38.28 C11.21 29.26, 18.61 22.78, 34.37 2.05 M2.88 38.28 C11.49 28.87, 18.81 19.58, 34.37 2.05 M2.62 44.67 C16.37 31.19, 30.33 13.87, 39.36 2.41 M2.62 44.67 C13.34 31.23, 26.06 19.14, 39.36 2.41 M2.35 51.07 C16.21 36.34, 29.95 19.33, 45 2.02 M2.35 51.07 C10.44 41.56, 20.21 29.96, 45 2.02 M2.75 56.72 C20.03 39.55, 34.05 18.05, 49.99 2.38 M2.75 56.72 C20.8 36, 38.64 13.98, 49.99 2.38 M2.49 63.11 C21.59 39.18, 42.87 18.71, 55.63 1.98 M2.49 63.11 C20.56 41.7, 40.33 20.34, 55.63 1.98 M2.88 68.76 C16.53 52.63, 28.59 40, 60.62 2.34 M2.88 68.76 C16.93 52.06, 31.83 34.21, 60.62 2.34 M2.62 75.15 C15.45 58.43, 26.84 45.8, 66.26 1.95 M2.62 75.15 C16.06 58.69, 30.02 42.98, 66.26 1.95 M2.36 81.55 C27.63 52.94, 53.96 24.73, 71.25 2.31 M2.36 81.55 C26.24 55.38, 48.55 28.02, 71.25 2.31 M2.75 87.2 C24.28 59.73, 49.7 32.54, 76.23 2.67 M2.75 87.2 C28.25 59.52, 51.68 29.38, 76.23 2.67 M2.49 93.59 C32.79 62.41, 61.55 25.85, 81.88 2.27 M2.49 93.59 C20.76 70.86, 39.4 49.52, 81.88 2.27 M2.89 99.24 C20.32 80.2, 39.42 57.22, 86.86 2.63 M2.89 99.24 C34.61 63.16, 66.23 23.87, 86.86 2.63 M2.63 105.63 C20.66 80.83, 41.54 58.06, 92.51 2.24 M2.63 105.63 C31.26 73.35, 58.97 39.55, 92.51 2.24 M4.33 109.77 C27.5 85.15, 48.29 61.13, 97.49 2.6 M4.33 109.77 C24.6 86.4, 45.25 61.44, 97.49 2.6 M4.73 115.41 C24.74 90.91, 43.74 68.72, 103.14 2.2 M4.73 115.41 C38.03 75.77, 71.55 38.03, 103.14 2.2 M7.09 118.79 C38.88 83.09, 72.38 45.98, 108.12 2.56 M7.09 118.79 C35.17 86.35, 64.63 52.42, 108.12 2.56 M10.11 121.41 C49.1 78.11, 86.35 35.68, 113.77 2.17 M10.11 121.41 C34.11 96.06, 56.11 68.45, 113.77 2.17 M13.13 124.04 C41.68 93.31, 68.55 60.81, 118.75 2.53 M13.13 124.04 C54.37 77.13, 96.44 29.3, 118.75 2.53 M16.8 125.91 C38.75 98.86, 62.79 74.76, 123.74 2.89 M16.8 125.91 C46.52 92.95, 74.5 60.05, 123.74 2.89 M20.48 127.78 C46.42 95.89, 76.24 61.68, 127.42 4.76 M20.48 127.78 C54.52 89.88, 89.63 50.06, 127.42 4.76 M25.46 128.14 C54.65 96.05, 79.55 67.3, 131.09 6.63 M25.46 128.14 C62.47 84.94, 100.66 42.59, 131.09 6.63 M30.45 128.5 C69.17 85.96, 102.85 43.94, 134.11 9.25 M30.45 128.5 C55.96 99.93, 81.13 70.94, 134.11 9.25 M36.09 128.1 C59.98 101.39, 85.32 71.54, 136.47 12.63 M36.09 128.1 C67.65 90.76, 98.1 53.38, 136.47 12.63 M41.08 128.46 C81.77 83.19, 121.27 40.46, 138.83 16.01 M41.08 128.46 C69.11 96.64, 96.14 64.28, 138.83 16.01 M46.72 128.07 C80.85 90.3, 112.07 54.37, 141.2 19.39 M46.72 128.07 C84.46 85.1, 121.05 41.69, 141.2 19.39 M51.71 128.43 C74.7 100.18, 100.42 70.9, 141.59 25.03 M51.71 128.43 C85.29 88.63, 117.67 50.54, 141.59 25.03 M56.7 128.79 C87.26 94.99, 117.07 59.89, 142.64 29.92 M56.7 128.79 C89.3 90.54, 121.32 51.78, 142.64 29.92 M62.34 128.39 C84.52 101.74, 110.74 73.74, 143.69 34.81 M62.34 128.39 C92.32 93.33, 123.47 56.72, 143.69 34.81 M67.33 128.75 C88.68 105.05, 110.4 80.45, 144.09 40.45 M67.33 128.75 C88.25 107.99, 107.85 85.51, 144.09 40.45 M72.97 128.36 C98.63 98.82, 126.9 65.99, 143.83 46.85 M72.97 128.36 C100.06 97.99, 125.16 67.43, 143.83 46.85 M77.96 128.72 C103.41 102.41, 128.63 72.97, 143.56 53.25 M77.96 128.72 C101.17 101.11, 124.75 74.37, 143.56 53.25 M83.6 128.32 C99.43 107.63, 115.22 90.39, 143.96 58.89 M83.6 128.32 C109.14 100.9, 132.58 73.2, 143.96 58.89 M88.59 128.68 C108.42 109.81, 122.18 90.18, 143.7 65.29 M88.59 128.68 C101.01 114.68, 114.01 101.01, 143.7 65.29 M94.23 128.29 C113.93 104.64, 135.22 83.3, 143.44 71.69 M94.23 128.29 C106.58 113.15, 118.34 99.15, 143.44 71.69 M99.22 128.65 C116.6 108.55, 134.19 88.4, 143.83 77.33 M99.22 128.65 C115.46 110.74, 130.92 93.43, 143.83 77.33 M104.21 129.01 C116.99 112.51, 128.75 99.53, 143.57 83.73 M104.21 129.01 C117.19 113.88, 130 98.48, 143.57 83.73 M109.85 128.62 C119.75 115.96, 130.78 104.78, 143.31 90.13 M109.85 128.62 C117.46 121.3, 124.07 111.87, 143.31 90.13 M116.15 127.47 C125.85 116.42, 132.67 106.96, 143.7 95.77 M116.15 127.47 C122.41 120.42, 128.41 114.21, 143.7 95.77 M121.79 127.07 C126.45 119.78, 132.53 117.88, 141.47 104.43 M121.79 127.07 C126.41 122.32, 131.24 115.2, 141.47 104.43" stroke="#ffec99" stroke-width="0.5" fill="none"></path><path d="M31.99 0 M31.99 0 C60.37 -0.01, 90.83 -0.06, 108.96 0 M31.99 0 C61.89 1.4, 94.03 1.28, 108.96 0 M108.96 0 C130.62 -1.11, 142.59 9.18, 140.95 31.99 M108.96 0 C129.58 2.06, 139.18 10.44, 140.95 31.99 M140.95 31.99 C139.54 57.27, 140.62 79.18, 140.95 95.98 M140.95 31.99 C141.69 56.3, 142.04 79.86, 140.95 95.98 M140.95 95.98 C139.48 115.77, 131.44 127.41, 108.96 127.97 M140.95 95.98 C139.68 118.14, 131.7 126.04, 108.96 127.97 M108.96 127.97 C84.38 125.64, 60.5 125.71, 31.99 127.97 M108.96 127.97 C80.61 128.63, 52.62 127.85, 31.99 127.97 M31.99 127.97 C8.73 128.67, 1.03 116.43, 0 95.98 M31.99 127.97 C9.87 129.67, 2.27 119.25, 0 95.98 M0 95.98 C0.42 72.48, 1.86 46.82, 0 31.99 M0 95.98 C0.45 72.87, -0.09 47.56, 0 31.99 M0 31.99 C-0.69 9.58, 10.13 -1.46, 31.99 0 M0 31.99 C1.93 10.31, 12.5 -0.92, 31.99 0" stroke="#f08c00" stroke-width="1" fill="none"></path></g><g transform="translate(554.7316405870858 297.58203125) rotate(0 33.219970703125 12.5)"><text x="33.219970703125" y="0" font-family="Virgil, Segoe UI Emoji" font-size="20px" fill="#f08c00" text-anchor="middle" style="white-space: pre;" direction="ltr" dominant-baseline="text-before-edge">Library</text></g><g stroke-linecap="round"><g transform="translate(381.12348629021085 77.6484375) rotate(0 66.0271900665108 0.5296147758922416)"><path d="M0.15 -0.67 C22.15 -0.86, 109.2 -0.22, 131.06 -0.04 M-1.23 1.59 C21.22 2.1, 110.78 1.34, 133.28 1.38" stroke="#1e1e1e" stroke-width="1" fill="none"></path></g><g transform="translate(381.12348629021085 77.6484375) rotate(0 66.0271900665108 0.5296147758922416)"><path d="M104.01 10.19 C110.97 8.21, 118 7.98, 133.28 2.41 M104.41 11.54 C115.06 8.96, 125.24 4.99, 133.29 0.62" stroke="#1e1e1e" stroke-width="1" fill="none"></path></g><g transform="translate(381.12348629021085 77.6484375) rotate(0 66.0271900665108 0.5296147758922416)"><path d="M103.94 -10.33 C111.11 -7.72, 118.15 -3.36, 133.28 2.41 M104.33 -8.98 C114.94 -4.18, 125.14 -0.75, 133.29 0.62" stroke="#1e1e1e" stroke-width="1" fill="none"></path></g></g><mask></mask><g stroke-linecap="round" transform="translate(232.25825191521085 245.357421875) rotate(0 70.474609375 63.986328125)"><path d="M7.86 8.16 C7.86 8.16, 7.86 8.16, 7.86 8.16 M7.86 8.16 C7.86 8.16, 7.86 8.16, 7.86 8.16 M3.66 19.08 C7.34 13.11, 12.19 6.07, 18.1 2.48 M3.66 19.08 C8.22 12.45, 13.44 7.77, 18.1 2.48 M2.74 26.24 C10.15 16.13, 18.09 9.67, 24.39 1.33 M2.74 26.24 C10.32 17.86, 17.04 10.07, 24.39 1.33 M2.48 32.63 C8.79 24.68, 19.11 14.22, 30.69 0.18 M2.48 32.63 C9.01 26.34, 14.28 17.29, 30.69 0.18 M2.88 38.28 C11.11 30.32, 15.49 23.54, 34.37 2.05 M2.88 38.28 C9.33 29.72, 17.97 20.84, 34.37 2.05 M2.62 44.67 C14.06 30.74, 26.56 20.29, 39.36 2.41 M2.62 44.67 C10.61 35.34, 16.67 26.74, 39.36 2.41 M2.35 51.07 C18.48 34.98, 31.34 16.6, 45 2.02 M2.35 51.07 C18.83 31.96, 35.84 12.59, 45 2.02 M2.75 56.72 C18.82 38.59, 31.64 21.96, 49.99 2.38 M2.75 56.72 C17.94 39.47, 35.09 21.38, 49.99 2.38 M2.49 63.11 C23.81 41.1, 46.16 16.56, 55.63 1.98 M2.49 63.11 C22.77 41.13, 42.07 16.88, 55.63 1.98 M2.88 68.76 C17.1 52.97, 33.57 35.26, 60.62 2.34 M2.88 68.76 C18.06 51.11, 33.98 34.69, 60.62 2.34 M2.62 75.15 C28.99 43.97, 51.52 16.81, 66.26 1.95 M2.62 75.15 C19.99 55.48, 37.26 33.92, 66.26 1.95 M2.36 81.55 C26.13 53.85, 53.11 22.94, 71.25 2.31 M2.36 81.55 C28.66 50.26, 56.8 19.63, 71.25 2.31 M2.75 87.2 C24.87 65.12, 41.55 40.97, 76.23 2.67 M2.75 87.2 C18.46 69.71, 34.19 50.82, 76.23 2.67 M2.49 93.59 C21.17 73.31, 34.6 56.05, 81.88 2.27 M2.49 93.59 C28.13 65.23, 53.2 37.23, 81.88 2.27 M2.89 99.24 C27.94 67.47, 56.04 37.18, 86.86 2.63 M2.89 99.24 C22.52 76.53, 42.53 53.88, 86.86 2.63 M2.63 105.63 C24.42 81.83, 43.45 57.25, 92.51 2.24 M2.63 105.63 C37.8 64.97, 72.58 24.44, 92.51 2.24 M4.33 109.77 C34.41 78.61, 60.38 46.7, 97.49 2.6 M4.33 109.77 C23.4 86.5, 43.9 62.99, 97.49 2.6 M4.73 115.41 C33.53 80.34, 60.18 49.98, 103.14 2.2 M4.73 115.41 C39.25 74.39, 76.17 33.87, 103.14 2.2 M7.09 118.79 C45.62 76.61, 83.33 29.93, 108.12 2.56 M7.09 118.79 C46.82 72.92, 85.31 28.91, 108.12 2.56 M10.11 121.41 C34.78 91.94, 63.08 59.16, 113.77 2.17 M10.11 121.41 C44.52 82.19, 78.61 42.29, 113.77 2.17 M13.13 124.04 C48.47 82.54, 87.19 39.65, 118.75 2.53 M13.13 124.04 C48.01 85.91, 81.7 48.13, 118.75 2.53 M16.8 125.91 C45.4 93.4, 72.19 65.19, 123.74 2.89 M16.8 125.91 C59.36 77.24, 101.58 27.14, 123.74 2.89 M20.48 127.78 C41.7 97.36, 67.8 71.61, 127.42 4.76 M20.48 127.78 C40.89 103, 63.08 77.63, 127.42 4.76 M25.46 128.14 C46.79 105.81, 69.48 81.73, 131.09 6.63 M25.46 128.14 C47.91 103.01, 70.47 76.14, 131.09 6.63 M30.45 128.5 C56.37 97.82, 82.61 68.22, 134.11 9.25 M30.45 128.5 C70.71 82.31, 111.7 36.94, 134.11 9.25 M36.09 128.1 C63.88 96.99, 88.84 69.14, 136.47 12.63 M36.09 128.1 C59.41 101.3, 81.6 76.92, 136.47 12.63 M41.08 128.46 C71.13 94.35, 100.66 59.64, 138.83 16.01 M41.08 128.46 C80.19 83.96, 119.91 40.12, 138.83 16.01 M46.72 128.07 C65.16 105.66, 85.34 82.81, 141.2 19.39 M46.72 128.07 C69.73 102.88, 91.27 76.75, 141.2 19.39 M51.71 128.43 C78.45 99.82, 100.57 70.08, 141.59 25.03 M51.71 128.43 C81.09 94.76, 111.47 62.15, 141.59 25.03 M56.7 128.79 C77.42 101.72, 101.7 77.74, 142.64 29.92 M56.7 128.79 C76.88 106.59, 97.7 82.49, 142.64 29.92 M62.34 128.39 C84.95 101.36, 109.22 72.59, 143.69 34.81 M62.34 128.39 C83.82 103.39, 103.18 80.05, 143.69 34.81 M67.33 128.75 C86.2 108.48, 104.68 86.3, 144.09 40.45 M67.33 128.75 C97.06 94.06, 126.12 60.78, 144.09 40.45 M72.97 128.36 C95.5 105.72, 114.43 83.81, 143.83 46.85 M72.97 128.36 C91.39 109.61, 107.34 89.77, 143.83 46.85 M77.96 128.72 C91.87 113.46, 104.37 97.46, 143.56 53.25 M77.96 128.72 C93.53 112.67, 107.92 94.23, 143.56 53.25 M83.6 128.32 C97.71 113.94, 111.33 97.32, 143.96 58.89 M83.6 128.32 C101.01 107.4, 119.65 86.69, 143.96 58.89 M88.59 128.68 C103.17 114.03, 115.32 97.93, 143.7 65.29 M88.59 128.68 C103.75 112.59, 119.37 94.36, 143.7 65.29 M94.23 128.29 C110.5 110.38, 126.19 92.52, 143.44 71.69 M94.23 128.29 C105.19 114.55, 116.07 103.04, 143.44 71.69 M99.22 128.65 C107.82 115.45, 119.03 104.19, 143.83 77.33 M99.22 128.65 C115.91 107.19, 134.92 88.02, 143.83 77.33 M104.21 129.01 C116.59 113.08, 130.89 95.89, 143.57 83.73 M104.21 129.01 C120.63 111.51, 134.37 93.32, 143.57 83.73 M109.85 128.62 C123.18 115.68, 134.1 100.18, 143.31 90.13 M109.85 128.62 C119.57 118.55, 129.53 108.05, 143.31 90.13 M116.15 127.47 C127.88 115.97, 138.93 103.62, 143.7 95.77 M116.15 127.47 C126.06 115.19, 137.46 105.5, 143.7 95.77 M121.79 127.07 C128.26 117.19, 134.09 111.31, 141.47 104.43 M121.79 127.07 C127.95 119.36, 135.69 111.29, 141.47 104.43" stroke="#ffc9c9" stroke-width="0.5" fill="none"></path><path d="M31.99 0 M31.99 0 C57.91 1.66, 82.38 1.93, 108.96 0 M31.99 0 C52.33 -1.42, 71.25 0.28, 108.96 0 M108.96 0 C131.65 1.31, 140.21 12.41, 140.95 31.99 M108.96 0 C130.97 -1.05, 140.95 8.61, 140.95 31.99 M140.95 31.99 C140.46 47.72, 140.44 61.45, 140.95 95.98 M140.95 31.99 C142.27 48.65, 141.39 67.4, 140.95 95.98 M140.95 95.98 C142.06 116.14, 131.23 127.38, 108.96 127.97 M140.95 95.98 C141.89 115.18, 129.03 130.08, 108.96 127.97 M108.96 127.97 C81.01 127.37, 52.72 128.93, 31.99 127.97 M108.96 127.97 C85.64 127.69, 61.91 127.09, 31.99 127.97 M31.99 127.97 C11.59 127.37, -0.3 119.06, 0 95.98 M31.99 127.97 C12.52 129.68, -0.63 117.64, 0 95.98 M0 95.98 C1.64 78.78, 2.04 65.51, 0 31.99 M0 95.98 C0.17 78.49, -0.32 62.47, 0 31.99 M0 31.99 C1.87 8.85, 12.07 0.6, 31.99 0 M0 31.99 C-1.47 11.32, 10.89 -0.32, 31.99 0" stroke="#e03131" stroke-width="1" fill="none"></path></g><g transform="translate(267.16289211296476 284.34375) rotate(0 35.569969177246094 25)"><text x="35.569969177246094" y="0" font-family="Virgil, Segoe UI Emoji" font-size="20px" fill="#e03131" text-anchor="middle" style="white-space: pre;" direction="ltr" dominant-baseline="text-before-edge">Design </text><text x="35.569969177246094" y="25" font-family="Virgil, Segoe UI Emoji" font-size="20px" fill="#e03131" text-anchor="middle" style="white-space: pre;" direction="ltr" dominant-baseline="text-before-edge">System</text></g><g stroke-linecap="round"><g transform="translate(300.8542700336317 140.5546875) rotate(0 -0.8383997626114024 51.98987039676868)"><path d="M0.34 -0.07 C0.01 17.28, -0.93 86.62, -0.94 104.1 M-0.93 -1.14 C-1.54 16.31, -2.16 87.26, -1.99 105.12" stroke="#1e1e1e" stroke-width="1" fill="none"></path></g><g transform="translate(300.8542700336317 140.5546875) rotate(0 -0.8383997626114024 51.98987039676868)"><path d="M-12.32 76.58 C-9.86 89.55, -4.66 96.88, -3.51 107.02 M-12.8 76.17 C-9.3 85.57, -5.43 92.39, -1.29 104.14" stroke="#1e1e1e" stroke-width="1" fill="none"></path></g><g transform="translate(300.8542700336317 140.5546875) rotate(0 -0.8383997626114024 51.98987039676868)"><path d="M8.2 76.61 C2.69 89.63, -0.08 96.95, -3.51 107.02 M7.73 76.2 C5.41 85.66, 3.47 92.47, -1.29 104.14" stroke="#1e1e1e" stroke-width="1" fill="none"></path></g></g><mask></mask><g stroke-linecap="round"><g transform="translate(586.4555175402108 140.484375) rotate(0 -0.2164083422644012 53.51302516642494)"><path d="M0.36 -0.77 C0.6 16.79, 0.43 88.19, 0.34 106.19 M-0.91 1.45 C-0.71 19.14, -0.41 90.44, -0.42 107.79" stroke="#1e1e1e" stroke-width="1" fill="none"></path></g><g transform="translate(586.4555175402108 140.484375) rotate(0 -0.2164083422644012 53.51302516642494)"><path d="M-12.02 80.2 C-8.19 85.21, -4.24 89.75, 0.62 108.33 M-10.63 80.6 C-8.06 85.42, -6.91 91.62, -0.36 108.42" stroke="#1e1e1e" stroke-width="1" fill="none"></path></g><g transform="translate(586.4555175402108 140.484375) rotate(0 -0.2164083422644012 53.51302516642494)"><path d="M8.5 80.15 C8.03 85.24, 7.69 89.79, 0.62 108.33 M9.9 80.56 C8.27 85.45, 5.23 91.65, -0.36 108.42" stroke="#1e1e1e" stroke-width="1" fill="none"></path></g></g><mask></mask><g stroke-linecap="round" transform="translate(36.61958004021085 47.2265625) rotate(0 26.822265625 32.802734375)"><path d="M25.7 2.46 C25.7 2.46, 25.7 2.46, 25.7 2.46 M25.7 2.46 C25.7 2.46, 25.7 2.46, 25.7 2.46 M3.13 34.52 C11.71 22.29, 20.66 13.83, 30.03 3.58 M3.13 34.52 C10.4 26.14, 18.35 15.44, 30.03 3.58 M5.49 37.9 C11.37 27.59, 19.81 22.09, 32.39 6.96 M5.49 37.9 C15.49 28.11, 25.31 17.01, 32.39 6.96 M7.2 42.03 C12.59 33.67, 21.28 28, 35.41 9.58 M7.2 42.03 C12.8 36.32, 19.3 28, 35.41 9.58 M10.22 44.66 C15.51 39.35, 20.62 30.42, 37.77 12.96 M10.22 44.66 C18.79 35.41, 28.56 23.86, 37.77 12.96 M12.58 48.04 C21.34 38.05, 31.79 25.08, 40.13 16.34 M12.58 48.04 C21.43 38.07, 28.56 29.5, 40.13 16.34 M15.6 50.66 C22.43 41.51, 30.54 33.29, 42.5 19.72 M15.6 50.66 C26.23 38.46, 37.36 25.75, 42.5 19.72 M17.96 54.04 C26.93 46.22, 30.95 40.19, 44.86 23.1 M17.96 54.04 C27.69 43.82, 37.38 31.14, 44.86 23.1 M20.98 56.66 C28.13 46.25, 35.19 38.19, 47.22 26.48 M20.98 56.66 C29.68 48.83, 37.26 39.52, 47.22 26.48 M23.34 60.04 C31.88 49.64, 41.56 38.61, 50.24 29.1 M23.34 60.04 C30.83 50.42, 37.59 43.73, 50.24 29.1 M26.36 62.67 C31.61 53.18, 41.05 44.67, 51.95 33.23 M26.36 62.67 C32.44 56.18, 38.32 49.4, 51.95 33.23" stroke="#b2f2bb" stroke-width="0.5" fill="none"></path><path d="M33.75 8.25 M33.75 8.25 C34.45 13.29, 40.5 14.99, 46.89 24.75 M33.75 8.25 C38.37 13.48, 41.7 19.84, 46.89 24.75 M46.89 24.75 C51.95 33.85, 54.06 32.13, 46.89 41.25 M46.89 24.75 C53.42 31.29, 52.8 34.11, 46.89 41.25 M46.89 41.25 C43.92 43.37, 39.44 47.86, 33.75 57.36 M46.89 41.25 C41.33 46.85, 36.7 52.29, 33.75 57.36 M33.75 57.36 C26.55 65.85, 28.81 65.79, 20.25 57.36 M33.75 57.36 C27.65 64.38, 28.75 63.37, 20.25 57.36 M20.25 57.36 C19.16 54.43, 14.85 51.23, 6.75 41.25 M20.25 57.36 C15.15 51.1, 11.56 46.13, 6.75 41.25 M6.75 41.25 C1.14 31.46, 1.83 34.43, 6.75 24.75 M6.75 41.25 C-0.91 32.35, -1.29 33.74, 6.75 24.75 M6.75 24.75 C11.62 17.45, 15.04 13.8, 20.25 8.25 M6.75 24.75 C10.02 20.95, 12.89 16.7, 20.25 8.25 M20.25 8.25 C25.46 0.66, 28.51 0.86, 33.75 8.25 M20.25 8.25 C28.63 -0.16, 27.79 -0.68, 33.75 8.25" stroke="#1e1e1e" stroke-width="1" fill="none"></path></g><g stroke-linecap="round" transform="translate(47.90864254021085 12.41796875) rotate(0 15.591796875 19.912109375)"><path d="M3.61 5.79 C3.61 5.79, 3.61 5.79, 3.61 5.79 M3.61 5.79 C3.61 5.79, 3.61 5.79, 3.61 5.79 M1.62 13.84 C5.04 10.17, 10.44 4.45, 11.9 -1.23 M-0.17 14.36 C5.2 9.44, 10.25 2.37, 14.76 -0.63 M0.08 18.86 C7.31 12.28, 11.93 7.73, 19.67 1.27 M1.3 20.64 C5.77 15.19, 11.31 8.44, 18.38 0.79 M3.79 23.29 C7.96 16.65, 14.34 10.68, 20.78 2.13 M2.01 24.67 C9.35 15.82, 17 8.4, 23.41 2.44 M1.94 27.97 C10.45 21.45, 20.68 12.7, 26.89 3.9 M3.4 29.3 C12.64 20.88, 20.57 10.85, 27.75 4.17 M6.22 35.18 C13.62 25.39, 17.8 18.88, 27.31 8.35 M5.32 34.26 C10.81 27.65, 16.55 21.24, 29.3 8.02 M8.01 36.18 C15.7 28.26, 23.78 17.61, 29.9 10.44 M9.58 37.18 C15.41 30.37, 19.83 22.87, 29.32 11.61 M9.95 39.7 C16.78 33.48, 20.91 29.06, 29.51 15.13 M12.13 39.58 C16.79 32.35, 24.17 25.39, 31.38 16.46 M16.93 40.18 C21.37 34.32, 26.91 29.21, 32.26 24.59 M16.44 38.6 C22.16 34.46, 26.24 29.62, 30.19 22.78" stroke="#b2f2bb" stroke-width="0.5" fill="none"></path><path d="M13.56 -0.59 C16.69 -1.48, 22.42 -0.23, 25.19 2.41 C27.96 5.05, 29.59 10.96, 30.2 15.23 C30.82 19.49, 30.13 24.2, 28.88 27.99 C27.62 31.78, 25.56 36.12, 22.66 37.96 C19.77 39.8, 14.67 39.97, 11.52 39.04 C8.38 38.11, 5.83 35.68, 3.82 32.39 C1.81 29.09, -0.49 23.69, -0.53 19.27 C-0.58 14.85, 1.18 8.94, 3.54 5.88 C5.9 2.81, 11.83 1.77, 13.62 0.9 C15.41 0.02, 14.16 0.44, 14.3 0.64 M10.16 0.8 C12.89 -0.55, 17.93 0.13, 21.05 1.46 C24.18 2.79, 27.2 5.37, 28.9 8.79 C30.61 12.22, 31.6 17.4, 31.29 22 C30.98 26.61, 29.86 33.48, 27.05 36.44 C24.23 39.41, 17.97 40.05, 14.38 39.79 C10.8 39.53, 7.72 37.84, 5.52 34.88 C3.33 31.92, 1.92 26.31, 1.23 22.03 C0.54 17.74, -0.18 12.41, 1.36 9.19 C2.9 5.97, 8.97 4.08, 10.47 2.71 C11.97 1.35, 10.09 0.79, 10.37 1" stroke="#1e1e1e" stroke-width="1" fill="none"></path></g><g stroke-linecap="round"><g transform="translate(90.09223629021085 79.5703125) rotate(0 13.681305340761327 -4.51470665988046)"><path d="M0.1 0.04 C4.51 -1.32, 21.7 -6.09, 26.37 -7.58 M-1.31 -0.98 C3.49 -2.69, 23.8 -7.96, 28.67 -9.07" stroke="#1e1e1e" stroke-width="1" fill="none"></path></g></g><mask></mask><g stroke-linecap="round"><g transform="translate(10.39530594944955 57.6943941598804) rotate(0 14.727772268545806 9.212492795619198)"><path d="M-0.4 0.59 C4.43 3.7, 22.78 15.49, 27.76 18.58 M1.6 -0.15 C6.87 2.58, 25.29 13.68, 29.85 16.57" stroke="#1e1e1e" stroke-width="1" fill="none"></path></g></g><mask></mask><g stroke-linecap="round"><g transform="translate(84.62186844944955 149.9209566598804) rotate(0 -8.21265190011826 -23.264248104509903)"><path d="M-0.34 -0.18 C-3.21 -7.52, -14.4 -37.08, -16.98 -44.63 M1.68 -1.32 C-1.39 -8.94, -15.13 -39.19, -18.1 -46.35" stroke="#1e1e1e" stroke-width="1" fill="none"></path></g></g><mask></mask><g stroke-linecap="round"><g transform="translate(39.99686844944955 147.8623629098804) rotate(0 8.433017951184894 -21.775520199537283)"><path d="M-0.14 -0.47 C2.71 -7.74, 13.32 -35.88, 16.17 -43.08 M-1.67 -1.77 C1.65 -8.86, 15.54 -34.7, 18.54 -41.51" stroke="#1e1e1e" stroke-width="1" fill="none"></path></g></g><mask></mask><g stroke-linecap="round"><g transform="translate(129.45161129021085 72.18359375) rotate(0 50.460846298933006 -1.934397953748686)"><path d="M-0.3 -0.41 C16.57 -0.92, 84.16 -3.04, 101.22 -3.46 M1.75 -1.67 C18.46 -1.93, 83.65 -1.3, 100.32 -1.84" stroke="#1e1e1e" stroke-width="1" fill="none"></path></g><g transform="translate(129.45161129021085 72.18359375) rotate(0 50.460846298933006 -1.934397953748686)"><path d="M71.54 8.83 C80.98 7.1, 90.3 2.34, 100.86 -2.37 M71.85 9.53 C84.22 4.47, 94.2 0.52, 100.51 -1.34" stroke="#1e1e1e" stroke-width="1" fill="none"></path></g><g transform="translate(129.45161129021085 72.18359375) rotate(0 50.460846298933006 -1.934397953748686)"><path d="M71.36 -11.69 C80.79 -7.24, 90.16 -5.82, 100.86 -2.37 M71.67 -10.99 C84 -7.92, 94.07 -3.74, 100.51 -1.34" stroke="#1e1e1e" stroke-width="1" fill="none"></path></g></g><mask></mask></svg>